<svg width="22" height="22" viewBox="0 0 22 22" fill="none" xmlns="http://www.w3.org/2000/svg">
<circle cx="10.8824" cy="11.2469" r="10.734" fill="white"/>
<path d="M16.2948 7.2087C16.2146 7.1278 16.1191 7.06358 16.0139 7.01976C15.9087 6.97593 15.7959 6.95337 15.682 6.95337C15.568 6.95337 15.4552 6.97593 15.35 7.01976C15.2448 7.06358 15.1493 7.1278 15.0691 7.2087L8.63823 13.6482L5.93641 10.9377C5.85309 10.8573 5.75473 10.794 5.64696 10.7515C5.53918 10.709 5.4241 10.6882 5.30827 10.6902C5.19245 10.6922 5.07815 10.717 4.97191 10.7632C4.86567 10.8094 4.76956 10.876 4.68908 10.9593C4.60859 11.0426 4.54531 11.141 4.50284 11.2488C4.46036 11.3565 4.43953 11.4716 4.44154 11.5875C4.44354 11.7033 4.46834 11.8176 4.51452 11.9238C4.56069 12.0301 4.62734 12.1262 4.71066 12.2066L8.02536 15.5213C8.1056 15.6023 8.20107 15.6665 8.30626 15.7103C8.41145 15.7541 8.52428 15.7767 8.63823 15.7767C8.75218 15.7767 8.86501 15.7541 8.9702 15.7103C9.07539 15.6665 9.17086 15.6023 9.2511 15.5213L16.2948 8.47761C16.3825 8.39678 16.4524 8.29867 16.5002 8.18948C16.548 8.08028 16.5727 7.96237 16.5727 7.84316C16.5727 7.72395 16.548 7.60603 16.5002 7.49683C16.4524 7.38764 16.3825 7.28954 16.2948 7.2087Z" fill="#055F5B"/>
</svg>
