<svg width="22" height="23" viewBox="0 0 22 23" fill="none" xmlns="http://www.w3.org/2000/svg">
<circle cx="10.855" cy="11.5958" r="10.734" fill="#649969"/>
<path d="M16.2675 7.55758C16.1872 7.47667 16.0918 7.41246 15.9866 7.36863C15.8814 7.32481 15.7686 7.30225 15.6546 7.30225C15.5407 7.30225 15.4278 7.32481 15.3227 7.36863C15.2175 7.41246 15.122 7.47667 15.0417 7.55758L8.61089 13.9971L5.90906 11.2866C5.82574 11.2061 5.72739 11.1428 5.61962 11.1004C5.51184 11.0579 5.39675 11.0371 5.28093 11.0391C5.1651 11.0411 5.05081 11.0659 4.94457 11.1121C4.83832 11.1582 4.74222 11.2249 4.66173 11.3082C4.58125 11.3915 4.51797 11.4899 4.47549 11.5976C4.43302 11.7054 4.41219 11.8205 4.41419 11.9363C4.4162 12.0522 4.441 12.1665 4.48717 12.2727C4.53335 12.3789 4.6 12.475 4.68331 12.5555L7.99801 15.8702C8.07826 15.9511 8.17373 16.0153 8.27892 16.0592C8.38411 16.103 8.49693 16.1256 8.61089 16.1256C8.72484 16.1256 8.83767 16.103 8.94285 16.0592C9.04804 16.0153 9.14351 15.9511 9.22376 15.8702L16.2675 8.82649C16.3551 8.74566 16.425 8.64755 16.4729 8.53836C16.5207 8.42916 16.5454 8.31124 16.5454 8.19203C16.5454 8.07282 16.5207 7.95491 16.4729 7.84571C16.425 7.73652 16.3551 7.63841 16.2675 7.55758Z" fill="white"/>
</svg>
